<svg xmlns="http://www.w3.org/2000/svg" fill="none" viewBox="0 0 1200 800" width="1200" height="800"><defs><clipPath id="assetClipPath_EfhoTXl8"><path d="m0 0 h 207.873 v 207.873 h -207.873 v -207.873 z" id="path_B2YKYvQ9" fill="#ffffff" /></clipPath></defs><g transform="translate(320 120)" data-asset-index="0"><g clip-path="url(#assetClipPath_EfhoTXl8)" transform="scale(2.6939525575712095 2.6939525575712095)" data-asset-index="0"><circle cx="103.937" cy="103.937" fill="#E6E6E6" r="103.937" id="RdMi6bdaHKspQWz-mB" fill-opacity="0" /><g fill="#CCCCCC" id="fQ8NZ2LL_HnG8kkhz7upb"><circle cx="104.803" cy="56.299" r="32.047" transform="matrix(.16017407 -.98708878 .98708878 .16017407 32.443 150.73)" fill="#CCCCCC" id="QCm-Jsy6VYwWP8MJRslcI" /><path d="m33.494 181.548c-.384-3.008-.58-6.074-.58-9.187 0-39.704 32.186-71.89 71.889-71.89s71.89 32.186 71.89 71.89c0 2.52-.13 5.012-.384 7.466-19.09 17.421-44.491 28.046-72.372 28.046-26.951 0-51.584-9.929-70.443-26.325z" fill-rule="evenodd" fill="#CCCCCC" id="TXf3VOp2I5hZruqOZNhHq" /></g></g></g></svg>